<?xml version="1.0" encoding="utf-8"?>
<!-- Generator: Adobe Illustrator 19.1.0, SVG Export Plug-In . SVG Version: 6.00 Build 0)  -->
<svg version="1.1" id="Layer_1" xmlns="http://www.w3.org/2000/svg" xmlns:xlink="http://www.w3.org/1999/xlink" x="0px" y="0px"
	 viewBox="0 0 20 20" style="enable-background:new 0 0 20 20;" xml:space="preserve">
<style type="text/css">
	.st0{fill:#FFFFFF;}
	.st1{fill:#2F72B8;}
	.st2{fill:#8199A3;}
	.st3{fill:#333333;}
</style>
<circle class="st0" cx="-15.7" cy="12.2" r="9.9"/>
<g>
	<path class="st1" d="M18.8,9.9c-0.2,5.2-4.5,9.2-9.6,9c-3.8-0.1-6.9-2.4-8.3-5.7c-0.1-0.3-0.3-0.7-0.4-1l3.6,0.1
		c1,1.9,2.9,3.3,5.2,3.4c1.9,0.1,3.7-0.8,4.8-2.2c0.8-1,1.3-2.2,1.4-3.5c0,0,0-0.1,0-0.1c0.1-2.4-1.3-4.6-3.3-5.6l0.6-3.4
		C16.4,2.2,18.9,5.8,18.8,9.9z"/>
	<path class="st2" d="M14.8,9.5c0,0,0,0.1,0,0.1c-0.1,1.1-0.4,2.2-1,3.1c-0.1-0.1-0.1-0.2-0.2-0.3c-0.1-0.2-0.3-0.4-0.4-0.5
		c-0.1-0.1-0.3-0.3-0.4-0.4c-2.3-2-5.8-1.9-8.1,0.1l-3.9-0.1c0.4-0.6,0.8-1.2,1.3-1.7c3.4-3.4,9.1-3.6,12.7-0.6
		C14.8,9.4,14.8,9.4,14.8,9.5z"/>
	<path class="st3" d="M11.5,4l0.6-3.3c-0.8-0.2-1.5-0.4-2.4-0.4c-1.5,0-3,0.3-4.2,0.9L5.4,5.2c1.1-1,2.6-1.6,4.3-1.6
		C10.3,3.6,10.9,3.7,11.5,4z"/>
</g>
</svg>
