<?xml version="1.0" standalone="no"?>
<!DOCTYPE svg PUBLIC "-//W3C//DTD SVG 20010904//EN"
 "http://www.w3.org/TR/2001/REC-SVG-20010904/DTD/svg10.dtd">
<svg version="1.0" xmlns="http://www.w3.org/2000/svg"
 width="800.000000pt" height="800.000000pt" viewBox="0 0 800.000000 800.000000"
 preserveAspectRatio="xMidYMid meet">
<metadata>
Created by potrace 1.11, written by Peter Selinger 2001-2013
</metadata>
<g transform="translate(0.000000,800.000000) scale(0.100000,-0.100000)"
fill="#000000" stroke="none">
<path d="M1215 7988 c-223 -19 -444 -98 -645 -233 -156 -104 -340 -316 -430
-495 -29 -58 -79 -179 -84 -205 -1 -5 -5 -19 -9 -30 -8 -25 -15 -60 -33 -160
-11 -68 -13 -517 -11 -2905 1 -1554 6 -2840 9 -2859 4 -18 10 -41 13 -51 3
-10 7 -27 9 -37 66 -339 345 -698 676 -870 218 -113 359 -144 635 -143 255 2
350 22 554 117 311 144 561 415 686 743 18 47 53 176 61 224 3 21 8 48 11 60
4 11 7 441 9 955 1 513 5 939 8 946 3 10 278 12 1330 12 729 0 1326 -3 1327
-6 0 -3 0 -411 1 -906 1 -803 4 -963 21 -1055 37 -192 106 -360 214 -523 66
-101 249 -280 356 -351 144 -95 314 -167 474 -200 98 -21 424 -21 531 -1 208
40 445 152 592 280 239 208 400 476 456 760 2 11 8 43 13 70 12 58 10 5715 -1
5755 -4 14 -10 39 -14 55 -41 212 -164 450 -319 622 -196 217 -497 381 -765
418 -25 3 -58 9 -75 11 -43 8 -257 7 -308 -1 -74 -12 -91 -15 -117 -20 -14 -3
-36 -8 -49 -11 -56 -12 -202 -67 -276 -106 -291 -150 -502 -377 -628 -673 -40
-96 -68 -191 -83 -285 -3 -19 -8 -46 -11 -60 -3 -14 -7 -261 -9 -550 -2 -289
-3 -532 -3 -540 -1 -13 -154 -15 -1328 -14 -731 1 -1330 2 -1333 3 -3 0 -4
227 -4 503 2 525 -3 607 -42 763 -33 132 -96 274 -180 399 -54 83 -74 107
-147 186 -271 290 -673 441 -1082 408z"/>
</g>
</svg>
